<svg xmlns="http://www.w3.org/2000/svg" viewBox="-205 207 100 100"><path fill="#101010" d="M-157.6 294.7h5.1c2.6 0 4.7-2.1 4.7-4.7v-3.4c3-.7 5.8-1.9 8.4-3.5l2.4 2.4c1.8 1.8 4.8 1.8 6.7 0l3.6-3.6c.9-.9 1.4-2.1 1.4-3.3s-.5-2.4-1.4-3.3l-2.4-2.4c1.6-2.6 2.8-5.5 3.5-8.4h3.4c2.6 0 4.7-2.1 4.7-4.7v-5.1c0-2.6-2.1-4.7-4.7-4.7h-3.4c-.7-3-1.9-5.8-3.5-8.4l2.4-2.4c.9-.9 1.4-2.1 1.4-3.3s-.5-2.4-1.4-3.3l-3.6-3.6c-1.8-1.8-4.8-1.8-6.7 0l-2.4 2.4c-2.6-1.6-5.5-2.8-8.4-3.5v-3.4c0-2.6-2.1-4.7-4.7-4.7h-5.1c-2.6 0-4.7 2.1-4.7 4.7v3.4c-3 .7-5.8 1.9-8.4 3.5l-2.4-2.4c-1.8-1.8-4.8-1.8-6.7 0l-3.6 3.6c-1.8 1.8-1.8 4.8 0 6.7l2.4 2.4c-1.6 2.6-2.8 5.5-3.5 8.4h-3.4c-2.6 0-4.7 2.1-4.7 4.7v5.1c0 2.6 2.1 4.7 4.7 4.7h3.4c.7 3 1.9 5.8 3.5 8.4l-2.4 2.4c-1.8 1.8-1.8 4.8 0 6.7l3.6 3.6c1.8 1.8 4.8 1.8 6.7 0l2.4-2.4c2.6 1.6 5.5 2.8 8.4 3.5v3.4c0 2.3 2.1 4.5 4.7 4.5zm-12.4-15.2l-1.1-.8-4.3 4.3c-.5.5-1.4.5-2 0l-3.6-3.6c-.5-.5-.5-1.4 0-2l4.3-4.3-.8-1.1c-2-3-3.3-6.2-4-9.7l-.3-1.3h-6.1c-.8 0-1.4-.6-1.4-1.4v-5.1c0-.8.6-1.4 1.4-1.4h6.1l.3-1.3c.7-3.5 2.1-6.8 4-9.7l.8-1.1-4.3-4.3c-.5-.5-.5-1.4 0-2l3.6-3.6c.5-.5 1.4-.5 2 0l4.3 4.3 1.1-.8c3-2 6.2-3.3 9.7-4l1.3-.3v-6.1c0-.8.6-1.4 1.4-1.4h5.1c.8 0 1.4.6 1.4 1.4v6.1l1.3.3c3.5.7 6.8 2.1 9.7 4l1.1.8 4.3-4.3c.5-.5 1.4-.5 2 0l3.6 3.6c.3.3.4.6.4 1s-.1.7-.4 1l-4.3 4.3.8 1.1c2 3 3.3 6.2 4 9.7l.3 1.3h6.1c.8 0 1.4.6 1.4 1.4v5.1c0 .8-.6 1.4-1.4 1.4h-6.1l-.3 1.3c-.7 3.5-2.1 6.8-4 9.7l-.8 1.1 4.3 4.3c.3.3.4.6.4 1s-.1.7-.4 1l-3.6 3.6c-.5.5-1.4.5-2 0l-4.3-4.3-1.1.8c-3 2-6.2 3.3-9.7 4l-1.3.3v6.1c0 .8-.6 1.4-1.4 1.4h-5.1c-.8 0-1.4-.6-1.4-1.4v-6.1l-1.3-.3c-3.5-.6-6.8-2-9.7-4zm29.7-22.5c0-8.1-6.6-14.7-14.7-14.7s-14.7 6.6-14.7 14.7 6.6 14.7 14.7 14.7 14.7-6.6 14.7-14.7zm-26.1 0c0-6.3 5.1-11.4 11.4-11.4 6.3 0 11.4 5.1 11.4 11.4s-5.1 11.4-11.4 11.4c-6.3 0-11.4-5.1-11.4-11.4z"/></svg>