<svg xmlns="http://www.w3.org/2000/svg" viewBox="0 0 512 512"><path fill="#0808ff" d="M337.1 444.2c-51.8 23-110.8 23.9-162.1.1-20-9.3-28.2 5.1-28.2 5.1-11.1 11.1-8.3 30.2 5.8 37 65.1 31.5 141.7 31.4 206.9-.1 14.1-6.8 16.9-25.9 5.8-37-.1 0-9.4-13.5-28.2-5.1zM175 67.7c51.3-23.8 110.4-22.9 162.1.1 18.9 8.4 28.1-5.1 28.1-5.1 11.1-11.1 8.3-30.2-5.8-37-65.1-31.6-141.7-31.6-206.8-.1-14.1 6.8-16.9 25.9-5.8 37 0 0 8.2 14.4 28.2 5.1zM62.6 146.8c-11.1-11.1-30.2-8.3-37 5.8-31.5 65.1-31.4 141.7.1 206.9 6.8 14.1 25.9 16.9 37 5.8 0 0 13.5-9.3 5.1-28.1-23-51.8-23.9-110.8-.1-162.1 9.3-20.2-5.1-28.3-5.1-28.3zm423.8 5.8c-6.8-14.1-25.9-16.9-37-5.8 0 0-14.4 8.2-5.1 28.1 23.8 51.3 22.9 110.4-.1 162.1-8.4 18.9 5.1 28.1 5.1 28.1 11.1 11.1 30.2 8.3 37-5.8 31.6-65 31.6-141.6.1-206.7zm-163.3 70c-18.4 18.4-18.4 48.3 0 66.7s48.2 18.4 66.7 0c18.4-18.4 18.4-48.3 0-66.7-18.5-18.4-48.3-18.4-66.7 0z"/><ellipse transform="rotate(-45.001 256.07 155.579)" fill="#0808ff" cx="256.1" cy="155.6" rx="47.2" ry="47.1"/><path fill="#0808ff" d="M222.6 323.1c-18.4 18.4-18.4 48.3 0 66.7s48.2 18.4 66.7 0 18.4-48.3 0-66.7c-18.4-18.5-48.2-18.5-66.7 0zm-33.7-33.7c18.4-18.4 18.4-48.3 0-66.7s-48.3-18.4-66.7 0-18.4 48.3 0 66.7c18.5 18.4 48.3 18.4 66.7 0z"/></svg>
