<?xml version="1.0" standalone="no"?>
<!DOCTYPE svg PUBLIC "-//W3C//DTD SVG 20010904//EN"
 "http://www.w3.org/TR/2001/REC-SVG-20010904/DTD/svg10.dtd">
<svg version="1.0" xmlns="http://www.w3.org/2000/svg"
 width="700.000000pt" height="700.000000pt" viewBox="0 0 700.000000 700.000000"
 preserveAspectRatio="xMidYMid meet">
<metadata>
Created by potrace 1.11, written by Peter Selinger 2001-2013
</metadata>
<g transform="translate(0.000000,700.000000) scale(0.100000,-0.100000)"
fill="#000000" stroke="none">
<path d="M3259 6966 c-2 -2 -38 -7 -79 -10 -64 -6 -164 -20 -295 -42 -289 -48
-800 -237 -881 -325 -109 -119 -118 -301 -21 -416 12 -14 35 -41 50 -59 58
-68 173 -97 275 -69 26 7 85 30 132 50 109 48 289 109 410 140 95 24 105 26
190 40 25 4 54 9 65 11 10 2 51 6 90 10 38 3 79 8 90 10 29 6 351 5 415 -1
313 -29 580 -95 856 -211 159 -66 251 -73 348 -24 74 38 162 156 174 234 17
113 -18 227 -91 292 -43 39 -151 92 -322 158 -231 90 -475 153 -714 186 -45 6
-99 14 -120 17 -42 6 -566 15 -572 9z"/>
<path d="M3380 5504 c-267 -54 -465 -257 -515 -529 -11 -62 -6 -185 10 -251
29 -116 81 -209 165 -295 167 -170 366 -231 597 -183 287 59 499 315 507 613
8 287 -180 545 -459 631 -85 26 -215 32 -305 14z"/>
<path d="M553 5075 c-115 -35 -165 -83 -232 -227 -115 -245 -220 -598 -256
-861 -3 -27 -8 -58 -11 -70 -26 -139 -26 -731 1 -827 3 -8 7 -37 10 -65 3 -27
7 -61 10 -75 3 -14 7 -36 10 -50 47 -247 112 -459 213 -696 63 -146 106 -207
175 -247 84 -49 203 -55 290 -13 92 43 176 137 193 217 19 88 -1 174 -77 344
-65 143 -157 514 -174 701 -3 33 -8 77 -10 99 -7 59 -7 362 0 420 21 194 41
311 74 443 21 80 65 222 81 257 43 97 95 229 106 268 17 64 10 148 -16 202
-19 40 -34 56 -111 120 -69 58 -193 84 -276 60z"/>
<path d="M6300 5075 c-74 -20 -94 -31 -157 -84 -80 -66 -107 -121 -107 -216 0
-61 6 -85 48 -185 87 -209 157 -432 181 -580 3 -19 8 -42 10 -50 2 -8 7 -35
10 -60 3 -25 7 -61 10 -80 16 -119 21 -411 10 -515 -2 -22 -7 -66 -10 -98 -9
-90 -52 -313 -79 -412 -35 -124 -50 -168 -113 -330 -63 -160 -64 -162 -64
-233 -1 -79 29 -153 80 -202 150 -144 342 -151 473 -18 37 38 94 144 135 253
8 22 21 54 28 70 41 93 125 378 154 525 15 74 40 239 49 325 15 148 7 632 -13
736 -2 9 -6 39 -10 66 -46 344 -232 892 -342 1005 -70 72 -198 108 -293 83z"/>
<path d="M2098 4145 c-2 -2 -25 -5 -53 -9 -107 -12 -182 -41 -280 -107 -122
-81 -204 -191 -251 -336 -25 -77 -28 -102 -28 -198 1 -89 6 -125 28 -191 98
-304 395 -486 719 -441 62 9 190 59 246 96 245 163 349 468 256 748 -71 212
-265 383 -480 422 -58 11 -152 20 -157 16z"/>
<path d="M4760 4134 c-213 -41 -380 -172 -477 -374 -59 -124 -67 -320 -19
-464 25 -75 88 -181 138 -237 76 -82 205 -156 323 -184 66 -16 202 -22 254
-11 176 37 322 128 414 258 88 124 120 227 121 383 0 84 -4 115 -28 188 -72
222 -241 377 -473 437 -63 16 -180 18 -253 4z"/>
<path d="M3355 2756 c-153 -41 -261 -109 -358 -230 -238 -292 -167 -728 152
-938 111 -73 209 -101 351 -101 98 0 126 4 191 26 271 93 448 327 451 595 1
200 -55 338 -196 477 -82 81 -148 121 -261 160 -67 23 -261 30 -330 11z"/>
<path d="M2166 962 c-50 -7 -110 -48 -162 -112 -85 -105 -107 -204 -69 -323
28 -91 80 -141 205 -200 212 -99 561 -214 710 -233 19 -2 50 -9 70 -13 19 -5
60 -13 90 -17 60 -8 61 -8 170 -20 96 -11 530 -11 635 -1 321 32 662 119 953
243 153 66 193 88 228 126 130 141 119 330 -28 471 -59 57 -118 79 -208 78
-69 -1 -93 -8 -215 -61 -37 -16 -200 -76 -235 -86 -63 -18 -282 -73 -310 -78
-19 -3 -57 -10 -85 -15 -27 -5 -79 -12 -115 -16 -36 -3 -81 -9 -100 -11 -43
-6 -349 -5 -409 0 -24 3 -71 7 -105 10 -34 4 -73 9 -86 11 -14 3 -54 10 -90
15 -150 24 -379 95 -597 185 -109 45 -174 57 -247 47z"/>
</g>
</svg>
