<svg xmlns="http://www.w3.org/2000/svg" viewBox="0 0 24 24"><path d="M1.8 2C.8 2 0 2.8 0 3.8v7.4c0 1 .8 1.8 1.8 1.8h.8v3.2c0 .3.2.5.5.5.2 0 .3-.1.4-.2L6 13h1.8v3.4c0 1 .8 1.8 1.8 1.8H17l2.5 3.5c.2.2.5.3.7.1.1-.1.2-.3.2-.4v-3.2h.8c1 0 1.8-.8 1.8-1.8V9.1c0-1-.8-1.8-1.8-1.8h-6.1V3.8c0-1-.8-1.8-1.8-1.8H1.8zm0 1.1h11.6c.4 0 .8.3.8.8v3.4H9.7c-1 0-1.8.8-1.8 1.8V12H5.8c-.2 0-.3.1-.4.2l-1.7 2.4v-2c0-.3-.2-.5-.5-.5H1.8c-.4 0-.8-.3-.8-.8V3.8c.1-.4.4-.7.8-.7zm7.9 5.2h11.6c.4 0 .8.3.8.8v7.4c0 .4-.3.8-.8.8H20c-.3 0-.5.2-.5.5v2l-1.7-2.4c-.1-.1-.3-.2-.4-.2H9.7c-.4 0-.8-.3-.8-.8V9.1c0-.4.4-.8.8-.8z"/></svg>
