<svg xmlns="http://www.w3.org/2000/svg" viewBox="0 0 64 64"><path d="M40.86 14.91A9.13 9.13 0 1 0 31.73 24a9.13 9.13 0 0 0 9.13-9.09zm-14.25 0A5.13 5.13 0 1 1 31.73 20a5.13 5.13 0 0 1-5.12-5.09zM46.81 19a7.54 7.54 0 1 0 7.54-7.55A7.55 7.55 0 0 0 46.81 19zm11.08 0a3.54 3.54 0 1 1-3.54-3.55A3.55 3.55 0 0 1 57.89 19zM9.65 26.55A7.55 7.55 0 1 0 2.11 19a7.55 7.55 0 0 0 7.54 7.55zm0-11.09A3.55 3.55 0 1 1 6.11 19a3.55 3.55 0 0 1 3.54-3.54zM64 32.31v11.13a2 2 0 0 1-2 2h-1.83V53a2 2 0 0 1-2 2h-7.65a2 2 0 0 1-2-2v-7.56H46.7a2.08 2.08 0 0 1-.66-.12v-3.77a2.08 2.08 0 0 1 .66-.11h3.82a2 2 0 0 1 2 2V51h3.65v-7.56a2 2 0 0 1 2-2H60v-7.13H46.7a1.84 1.84 0 0 1-.66-.12v-3.76a2.08 2.08 0 0 1 .66-.12H62a2 2 0 0 1 2 2zM0 43.44V32.31a2 2 0 0 1 2-2H17.43v4H4v7.13h1.83a2 2 0 0 1 2 2V51h3.65v-7.56a2 2 0 0 1 2-2h3.95v4H15.48V53a2 2 0 0 1-2 2H5.83a2 2 0 0 1-2-2v-7.56H2a2 2 0 0 1-2-2zm19.43-12.37v13.71a2 2 0 0 0 2 2h2.75v9.43a2 2 0 0 0 2 2h11.11a2 2 0 0 0 2-2v-9.43H42a2 2 0 0 0 2-2V31.07a2 2 0 0 0-2-2H21.43a2 2 0 0 0-2 2zm4 2H40v9.71h-2.71a2 2 0 0 0-2 2v9.43h-7.11v-9.43a2 2 0 0 0-2-2h-2.75z"/></svg>
